#!OML:ASF X:\für Bonn\!DataBase\2005_08_10_Bjorn_Final\c3d\bjorn.ASF
:FULLY-SPECIFIED
:DEGREES
32
root -0.120982 19.1926 2.75524 -174.489 -15.8043 -178.114
lowerback -6.48519 1.87123 -1.66855
upperback 3.54663 2.69509 -1.28963
thorax 7.34436 1.24921 -0.0773964
lowerneck -7.21537 -4.06038 -2.63271
upperneck 19.7396 -5.67015 -1.90212
head 7.25376 -3.36777 -0.689186
rclavicle -1.65985e-014 4.92986e-014
rhumerus -50.9316 -48.0849 -51.4331
rradius 13.2787
rwrist 43.2028
rhand -5.17127 5.90989
rfingers 7.12502
rthumb 20.6288 -23.0139
lclavicle -1.65985e-014 4.92986e-014
lhumerus -30.248 -34.5874 84.6082
lradius 41.9148
lwrist -15.3641
lhand -23.0255 -17.9087
lfingers 7.12502
lthumb 3.41846 12.0436
rfemur -13.8252 -16.4458 18.6041
rtibia 30.7459
rfoot -20.7704 2.36221
rtoes -21.9832
lfemur -18.5558 2.04147 -16.5089
ltibia 33.667
lfoot -14.7973 -5.49315
ltoes -6.95345
33
root -0.143938 19.1963 2.76734 -174.359 -16.0849 -178.112
lowerback -6.26806 1.83171 -1.75421
upperback 3.53359 2.6458 -1.37885
thorax 7.20563 1.2233 -0.136896
lowerneck -7.18107 -4.13832 -2.66985
upperneck 19.8377 -5.83699 -1.60882
head 7.29053 -3.42678 -0.604132
rclavicle -5.12864e-014 -7.15625e-015
rhumerus -49.7833 -45.9196 -54.0443
rradius 13.8646
rwrist 40.5693
rhand -5.39094 6.08826
rfingers 7.12502
rthumb 20.4178 -22.8583
lclavicle -5.12864e-014 -7.15625e-015
lhumerus -30.1172 -34.0957 84.048
lradius 42.6506
lwrist -15.9076
lhand -23.0574 -18.3473
lfingers 7.12502
lthumb 3.38766 11.6055
rfemur -13.9621 -15.7024 18.5778
rtibia 30.8069
rfoot -20.9864 1.46949
rtoes -22.7287
lfemur -18.7682 2.09447 -16.5831
ltibia 33.644
lfoot -14.6896 -5.86656
ltoes -6.62386
34
root -0.166459 19.1995 2.78143 -174.264 -16.3674 -178.093
lowerback -6.00834 1.78673 -1.81133
upperback 3.53012 2.58406 -1.46466
thorax 7.05373 1.19245 -0.211058
lowerneck -7.24984 -4.20698 -2.71264
upperneck 20.0129 -5.99118 -1.30956
head 7.37182 -3.48036 -0.519909
rclavicle -3.08116e-014 -3.18055e-014
rhumerus -48.9022 -43.959 -56.3013
rradius 14.4137
rwrist 38.4984
rhand -5.64571 6.30538
rfingers 7.12502
rthumb 20.1729 -22.6672
lclavicle -3.08116e-014 -3.18055e-014
lhumerus -29.9659 -33.586 83.4783
lradius 43.4567
lwrist -16.3425
lhand -23.0122 -18.7287
lfingers 7.12502
lthumb 3.43129 11.2235
rfemur -14.0924 -15.085 18.5586
rtibia 30.9052
rfoot -21.1647 0.661081
rtoes -23.6426
lfemur -18.9529 2.08364 -16.6403
ltibia 33.6328
lfoot -14.577 -6.13116
ltoes -6.40945
35
root -0.188748 19.2025 2.79773 -174.161 -16.6267 -178.095
lowerback -5.724 1.74696 -1.87804
upperback 3.50948 2.5289 -1.5638
thorax 6.86961 1.16496 -0.293434
lowerneck -7.26004 -4.274 -2.77706
upperneck 20.1488 -6.14988 -0.975402
head 7.43245 -3.53426 -0.418791
rclavicle -4.87022e-014 -4.53229e-014
rhumerus -48.3446 -42.2497 -58.1513
rradius 14.9393
rwrist 36.9707
rhand -5.91719 6.58329
rfingers 7.12502
rthumb 19.912 -22.4166
lclavicle -4.87022e-014 -4.53229e-014
lhumerus -29.8607 -33.0887 82.9459
lradius 44.3478
lwrist -16.7939
lhand -23.0359 -19.0449
lfingers 7.12502
lthumb 3.40848 10.9076
rfemur -14.2538 -14.3147 18.5088
rtibia 31.0515
rfoot -21.338 -0.1927
rtoes -24.5019
lfemur -19.1459 2.03352 -16.7216
ltibia 33.6342
lfoot -14.4709 -6.36765
ltoes -6.14231
36
root -0.211437 19.2047 2.81442 -174.087 -16.8674 -178.07
lowerback -5.45275 1.69844 -1.93084
upperback 3.51742 2.45943 -1.63789
thorax 6.72304 1.12976 -0.357603
lowerneck -7.33648 -4.34392 -2.85552
upperneck 20.2972 -6.30255 -0.669033
head 7.50932 -3.58756 -0.325993
rclavicle 7.15625e-014 6.36111e-015
rhumerus -47.7528 -40.513 -59.9801
rradius 15.4867
rwrist 35.604
rhand -6.10165 6.89978
rfingers 7.12502
rthumb 19.7346 -22.1184
lclavicle 7.15625e-014 6.36111e-015
lhumerus -29.6883 -32.4693 82.4063
lradius 45.2661
lwrist -17.3277
lhand -23.0916 -19.3953
lfingers 7.12502
lthumb 3.35462 10.558
rfemur -14.4216 -13.6111 18.469
rtibia 31.2396
rfoot -21.4353 -0.980749
rtoes -25.3792
lfemur -19.3202 1.95615 -16.7773
ltibia 33.652
lfoot -14.3741 -6.56074
ltoes -5.84054
37
root -0.234037 19.2059 2.83384 -174.05 -17.1268 -178.05
lowerback -5.10634 1.66459 -1.93726
upperback 3.52169 2.40363 -1.75828
thorax 6.53321 1.10421 -0.496196
lowerneck -7.42799 -4.42213 -2.86727
upperneck 20.4511 -6.48283 -0.331693
head 7.59043 -3.64555 -0.237017
rclavicle 2.5842e-014 -7.95139e-016
rhumerus -47.4066 -39.0212 -61.5786
rradius 16.0665
rwrist 34.5514
rhand -6.25338 7.23857
rfingers 7.12502
rthumb 19.5888 -21.7946
lclavicle 2.5842e-014 -7.95139e-016
lhumerus -29.4812 -31.8653 81.8276
lradius 46.222
lwrist -17.8763
lhand -23.269 -19.8151
lfingers 7.12502
lthumb 3.18336 10.1409
rfemur -14.5799 -12.9428 18.4103
rtibia 31.4854
rfoot -21.4675 -1.69587
rtoes -26.26
lfemur -19.4667 1.86376 -16.8371
ltibia 33.683
lfoot -14.2895 -6.73017
ltoes -5.60476
38
root -0.255612 19.2066 2.854 -174.022 -17.3649 -178.009
lowerback -4.78531 1.62977 -1.92502
upperback 3.54526 2.3452 -1.87463
thorax 6.37898 1.07726 -0.639603
lowerneck -7.5819 -4.48285 -2.90755
upperneck 20.6266 -6.64306 0.0517013
head 7.69316 -3.69069 -0.129001
rclavicle 7.95139e-015 -6.36111e-014
rhumerus -47.1241 -37.6741 -63.0358
rradius 16.6804
rwrist 33.652
rhand -6.3164 7.64802
rfingers 7.12502
rthumb 19.5282 -21.3913
lclavicle 7.95139e-015 -6.36111e-014
lhumerus -29.178 -31.1064 81.2301
lradius 47.1778
lwrist -18.5698
lhand -23.5748 -20.3418
lfingers 7.12502
lthumb 2.88802 9.61836
rfemur -14.7788 -12.2668 18.3723
rtibia 31.794
rfoot -21.4119 -2.40654
rtoes -27.4642
lfemur -19.6291 1.77858 -16.8742
ltibia 33.739
lfoot -14.1935 -6.90603
ltoes -5.38117
39
root -0.276813 19.2063 2.87599 -174.012 -17.619 -177.967
lowerback -4.4083 1.57091 -1.94732
upperback 3.53583 2.25339 -1.95369
thorax 6.15452 1.03264 -0.729139
lowerneck -7.74842 -4.54158 -3.00633
upperneck 20.8418 -6.79201 0.400982
head 7.81316 -3.73888 -0.0227955
rclavicle -5.98342e-014 -7.95139e-015
rhumerus -46.9375 -36.2894 -64.3522
rradius 17.3145
rwrist 32.7704
rhand -6.37637 8.15027
rfingers 7.12502
rthumb 19.4705 -20.8949
lclavicle -5.98342e-014 -7.95139e-015
lhumerus -28.9368 -30.2266 80.7307
lradius 48.2181
lwrist -19.2539
lhand -24.0205 -20.9418
lfingers 7.12502
lthumb 2.45753 9.02375
rfemur -15.027 -11.675 18.3197
rtibia 32.2122
rfoot -21.3365 -2.99485
rtoes -28.4576
lfemur -19.7677 1.60911 -16.9056
ltibia 33.7898
lfoot -14.1193 -7.00399
ltoes -5.12832
40
root -0.298022 19.2036 2.8987 -173.998 -17.8561 -177.941
lowerback -4.07064 1.52253 -1.95149
upperback 3.55498 2.17579 -2.06611
thorax 5.98507 0.994966 -0.859956
lowerneck -8.03779 -4.61142 -3.11224
upperneck 21.0807 -6.95585 0.785483
head 7.96632 -3.78748 0.0907623
rclavicle -8.15017e-015 -1.43125e-014
rhumerus -46.731 -34.9371 -65.7125
rradius 17.9695
rwrist 31.8486
rhand -6.46367 8.66342
rfingers 7.12502
rthumb 19.3866 -20.3902
lclavicle -8.15017e-015 -1.43125e-014
lhumerus -28.6136 -29.3859 80.1862
lradius 49.338
lwrist -19.9163
lhand -24.6449 -21.577
lfingers 7.12502
lthumb 1.85452 8.39466
rfemur -15.3438 -11.1091 18.2374
rtibia 32.7608
rfoot -21.2749 -3.45453
rtoes -29.3464
lfemur -19.9 1.44995 -16.9587
ltibia 33.8155
lfoot -14.0189 -7.11405
ltoes -4.74955
